<svg width="33" height="33" viewBox="0 0 33 33" fill="none" xmlns="http://www.w3.org/2000/svg">
<path d="M27.2451 13.9047L26.6147 12.3287L25.497 9.53415C24.5374 7.1355 22.2487 5.58594 19.665 5.58594H12.5425C9.95933 5.58594 7.67004 7.1355 6.71047 9.53415L5.59274 12.3287L4.96238 13.9047C3.60966 14.4189 2.64392 15.7178 2.64392 17.2511V19.9431C2.64392 20.8471 2.98939 21.6631 3.54124 22.2946V25.327C3.54124 26.318 4.34491 27.1217 5.33589 27.1217H7.13053C8.12151 27.1217 8.92517 26.318 8.92517 25.327V23.5324H23.2823V25.327C23.2823 26.318 24.086 27.1217 25.077 27.1217H26.8716C27.8626 27.1217 28.6662 26.318 28.6662 25.327V22.2946C29.2181 21.6637 29.5636 20.8477 29.5636 19.9431V17.2511C29.5636 15.7178 28.5978 14.4189 27.2451 13.9047ZM10.0429 10.8672C10.4517 9.84541 11.4416 9.17522 12.5425 9.17522H19.665C20.7659 9.17522 21.7557 9.84541 22.1646 10.8672L23.2823 13.6618H8.92517L10.0429 10.8672ZM7.13053 19.9319C6.05374 19.9319 5.33589 19.2162 5.33589 18.1428C5.33589 17.0694 6.05374 16.3538 7.13053 16.3538C8.20731 16.3538 9.82249 17.9639 9.82249 19.0373C9.82249 20.1108 8.20731 19.9319 7.13053 19.9319ZM25.077 19.9319C24.0002 19.9319 22.385 20.1108 22.385 19.0373C22.385 17.9639 24.0002 16.3538 25.077 16.3538C26.1537 16.3538 26.8716 17.0694 26.8716 18.1428C26.8716 19.2162 26.1537 19.9319 25.077 19.9319Z" fill="black"/>
</svg>
