<svg width="29" height="29" viewBox="0 0 29 29" fill="none" xmlns="http://www.w3.org/2000/svg">
<g clip-path="url(#clip0_1_141)">
<path d="M28.3019 9.9294C28.3019 15.2029 24.0269 19.478 18.7533 19.478C18.1446 19.478 17.5495 19.4203 16.9724 19.3115L15.6696 20.7771C15.5475 20.9145 15.3976 21.0245 15.2298 21.0998C15.0621 21.1751 14.8803 21.2141 14.6964 21.2141H12.6769V23.3842C12.6769 24.1033 12.094 24.6863 11.3749 24.6863H9.20473V26.8564C9.20473 27.5756 8.62177 28.1585 7.90264 28.1585H1.82625C1.10712 28.1585 0.52417 27.5756 0.52417 26.8564V22.6215C0.52417 22.2761 0.661377 21.9449 0.905518 21.7007L9.68384 12.9224C9.37335 11.9809 9.20473 10.9749 9.20473 9.92935C9.20473 4.6558 13.4797 0.380792 18.7533 0.380737C24.0424 0.380683 28.3019 4.64023 28.3019 9.9294ZM18.7533 7.32518C18.7533 8.76344 19.9192 9.92935 21.3575 9.92935C22.7958 9.92935 23.9617 8.76344 23.9617 7.32518C23.9617 5.88692 22.7958 4.72101 21.3575 4.72101C19.9192 4.72101 18.7533 5.88692 18.7533 7.32518Z" fill="black"/>
</g>
<defs>
<clipPath id="clip0_1_141">
<rect width="27.7778" height="27.7778" fill="white" transform="translate(0.523804 0.380859)"/>
</clipPath>
</defs>
</svg>
