<svg width="32" height="32" viewBox="0 0 32 32" fill="none" xmlns="http://www.w3.org/2000/svg">
<path d="M10.7778 17.3582H8.41068C7.97473 17.3582 7.62164 17.7113 7.62164 18.1473V27.6157C7.62164 28.0517 7.97473 28.4048 8.41068 28.4048H10.7778C11.2137 28.4048 11.5668 28.0517 11.5668 27.6157V18.1473C11.5668 17.7113 11.2137 17.3582 10.7778 17.3582ZM4.46548 22.0925H2.09837C1.66242 22.0925 1.30933 22.4456 1.30933 22.8815V27.6157C1.30933 28.0517 1.66242 28.4048 2.09837 28.4048H4.46548C4.90143 28.4048 5.25452 28.0517 5.25452 27.6157V22.8815C5.25452 22.4456 4.90143 22.0925 4.46548 22.0925ZM17.0901 12.624H14.723C14.287 12.624 13.934 12.9771 13.934 13.413V27.6157C13.934 28.0517 14.287 28.4048 14.723 28.4048H17.0901C17.5261 28.4048 17.8791 28.0517 17.8791 27.6157V13.413C17.8791 12.9771 17.5261 12.624 17.0901 12.624ZM23.4024 7.88975H21.0353C20.5994 7.88975 20.2463 8.24285 20.2463 8.67879V27.6157C20.2463 28.0517 20.5994 28.4048 21.0353 28.4048H23.4024C23.8384 28.4048 24.1915 28.0517 24.1915 27.6157V8.67879C24.1915 8.24285 23.8384 7.88975 23.4024 7.88975ZM29.7147 3.15552H27.3476C26.9117 3.15552 26.5586 3.50861 26.5586 3.94456V27.6157C26.5586 28.0517 26.9117 28.4048 27.3476 28.4048H29.7147C30.1507 28.4048 30.5038 28.0517 30.5038 27.6157V3.94456C30.5038 3.50861 30.1507 3.15552 29.7147 3.15552Z" fill="black"/>
</svg>
